<mxfile host="app.diagrams.net" modified="2024-05-30T17:28:02.751Z" agent="Mozilla/5.0 (Windows NT 10.0; Win64; x64; rv:126.0) Gecko/20100101 Firefox/126.0" etag="MRzl9XZ3jjfh5rELGcHl" version="24.4.10" type="device">
  <diagram id="6a731a19-8d31-9384-78a2-239565b7b9f0" name="Page-1">
    <mxGraphModel dx="4352" dy="2077" grid="1" gridSize="10" guides="1" tooltips="1" connect="1" arrows="1" fold="1" page="1" pageScale="1" pageWidth="1169" pageHeight="827" background="none" math="0" shadow="0">
      <root>
        <mxCell id="0" />
        <mxCell id="1" parent="0" />
        <mxCell id="K02zq3fW6YqKF-il60_Z-97" value="&lt;h1 style=&quot;margin-top: 0px;&quot;&gt;Training&lt;/h1&gt;&lt;p&gt;Train the embedding kernel on the lfw dataset.&lt;br&gt;&lt;/p&gt;" style="text;html=1;whiteSpace=wrap;overflow=hidden;rounded=0;" parent="1" vertex="1">
          <mxGeometry x="-1120" y="40" width="280" height="122" as="geometry" />
        </mxCell>
        <mxCell id="K02zq3fW6YqKF-il60_Z-156" value="Siamese model" style="swimlane;whiteSpace=wrap;html=1;swimlaneFillColor=default;strokeWidth=2;" parent="1" vertex="1">
          <mxGeometry x="-480" y="150" width="340" height="251" as="geometry">
            <mxRectangle x="600" y="240" width="100" height="30" as="alternateBounds" />
          </mxGeometry>
        </mxCell>
        <mxCell id="K02zq3fW6YqKF-il60_Z-157" style="edgeStyle=orthogonalEdgeStyle;rounded=0;orthogonalLoop=1;jettySize=auto;html=1;curved=1;strokeWidth=2;dashed=1;endArrow=none;endFill=0;" parent="K02zq3fW6YqKF-il60_Z-156" source="K02zq3fW6YqKF-il60_Z-158" target="K02zq3fW6YqKF-il60_Z-160" edge="1">
          <mxGeometry relative="1" as="geometry">
            <Array as="points">
              <mxPoint x="210" y="91" />
              <mxPoint x="210" y="131" />
            </Array>
          </mxGeometry>
        </mxCell>
        <mxCell id="K02zq3fW6YqKF-il60_Z-158" value="&lt;div&gt;embedding&lt;/div&gt;&lt;div&gt;kernel&lt;/div&gt;" style="shape=cube;whiteSpace=wrap;html=1;boundedLbl=1;backgroundOutline=1;darkOpacity=0.05;darkOpacity2=0.1;strokeWidth=2;strokeColor=default;fillColor=default;" parent="K02zq3fW6YqKF-il60_Z-156" vertex="1">
          <mxGeometry x="80" y="51" width="120" height="80" as="geometry" />
        </mxCell>
        <mxCell id="K02zq3fW6YqKF-il60_Z-159" value="&lt;div&gt;embedding&lt;/div&gt;&lt;div&gt;kernel&lt;/div&gt;" style="shape=cube;whiteSpace=wrap;html=1;boundedLbl=1;backgroundOutline=1;darkOpacity=0.05;darkOpacity2=0.1;strokeWidth=2;strokeColor=default;fillColor=default;" parent="K02zq3fW6YqKF-il60_Z-156" vertex="1">
          <mxGeometry x="80" y="151" width="120" height="80" as="geometry" />
        </mxCell>
        <mxCell id="K02zq3fW6YqKF-il60_Z-160" value="classifier" style="shape=cube;whiteSpace=wrap;html=1;boundedLbl=1;backgroundOutline=1;darkOpacity=0.05;darkOpacity2=0.1;strokeWidth=2;strokeColor=default;fillColor=default;textDirection=vertical-lr;size=10;" parent="K02zq3fW6YqKF-il60_Z-156" vertex="1">
          <mxGeometry x="230" y="80" width="40" height="120" as="geometry" />
        </mxCell>
        <mxCell id="K02zq3fW6YqKF-il60_Z-161" style="edgeStyle=orthogonalEdgeStyle;rounded=0;orthogonalLoop=1;jettySize=auto;html=1;curved=1;strokeWidth=2;dashed=1;endArrow=none;endFill=0;" parent="K02zq3fW6YqKF-il60_Z-156" source="K02zq3fW6YqKF-il60_Z-159" target="K02zq3fW6YqKF-il60_Z-160" edge="1">
          <mxGeometry relative="1" as="geometry">
            <mxPoint x="210" y="101" as="sourcePoint" />
            <mxPoint x="240" y="141" as="targetPoint" />
            <Array as="points">
              <mxPoint x="210" y="191" />
              <mxPoint x="210" y="151" />
            </Array>
          </mxGeometry>
        </mxCell>
        <mxCell id="K02zq3fW6YqKF-il60_Z-162" style="edgeStyle=orthogonalEdgeStyle;rounded=0;orthogonalLoop=1;jettySize=auto;html=1;curved=1;strokeWidth=2;dashed=1;endArrow=none;endFill=0;" parent="K02zq3fW6YqKF-il60_Z-156" source="K02zq3fW6YqKF-il60_Z-164" target="K02zq3fW6YqKF-il60_Z-159" edge="1">
          <mxGeometry relative="1" as="geometry">
            <mxPoint x="50" y="151" as="sourcePoint" />
            <mxPoint x="80" y="191" as="targetPoint" />
            <Array as="points">
              <mxPoint x="60" y="151" />
              <mxPoint x="60" y="191" />
            </Array>
          </mxGeometry>
        </mxCell>
        <mxCell id="K02zq3fW6YqKF-il60_Z-163" style="edgeStyle=orthogonalEdgeStyle;rounded=0;orthogonalLoop=1;jettySize=auto;html=1;curved=1;strokeWidth=2;dashed=1;endArrow=none;endFill=0;" parent="K02zq3fW6YqKF-il60_Z-156" source="K02zq3fW6YqKF-il60_Z-164" target="K02zq3fW6YqKF-il60_Z-158" edge="1">
          <mxGeometry relative="1" as="geometry">
            <mxPoint x="50" y="131" as="sourcePoint" />
            <mxPoint x="80" y="91" as="targetPoint" />
            <Array as="points">
              <mxPoint x="60" y="131" />
              <mxPoint x="60" y="91" />
            </Array>
          </mxGeometry>
        </mxCell>
        <mxCell id="K02zq3fW6YqKF-il60_Z-164" value="input" style="shape=cube;whiteSpace=wrap;html=1;boundedLbl=1;backgroundOutline=1;darkOpacity=0.05;darkOpacity2=0.1;strokeWidth=2;strokeColor=default;fillColor=default;textDirection=vertical-lr;size=4;" parent="K02zq3fW6YqKF-il60_Z-156" vertex="1">
          <mxGeometry x="25" y="110" width="26" height="60" as="geometry" />
        </mxCell>
        <mxCell id="K02zq3fW6YqKF-il60_Z-165" value="output" style="shape=cube;whiteSpace=wrap;html=1;boundedLbl=1;backgroundOutline=1;darkOpacity=0.05;darkOpacity2=0.1;strokeWidth=2;strokeColor=default;fillColor=default;textDirection=vertical-lr;size=4;" parent="K02zq3fW6YqKF-il60_Z-156" vertex="1">
          <mxGeometry x="290" y="116" width="24" height="48" as="geometry" />
        </mxCell>
        <mxCell id="K02zq3fW6YqKF-il60_Z-166" style="edgeStyle=orthogonalEdgeStyle;rounded=0;orthogonalLoop=1;jettySize=auto;html=1;curved=1;strokeWidth=2;dashed=1;endArrow=none;endFill=0;" parent="K02zq3fW6YqKF-il60_Z-156" source="K02zq3fW6YqKF-il60_Z-160" target="K02zq3fW6YqKF-il60_Z-165" edge="1">
          <mxGeometry relative="1" as="geometry">
            <mxPoint x="210" y="101" as="sourcePoint" />
            <mxPoint x="290" y="211" as="targetPoint" />
            <Array as="points" />
          </mxGeometry>
        </mxCell>
        <mxCell id="K02zq3fW6YqKF-il60_Z-168" value="LFW" style="strokeWidth=2;html=1;shape=mxgraph.flowchart.database;whiteSpace=wrap;" parent="1" vertex="1">
          <mxGeometry x="-944.66" y="217.25" width="40" height="50" as="geometry" />
        </mxCell>
        <mxCell id="K02zq3fW6YqKF-il60_Z-169" value="var_anchor" style="sketch=0;outlineConnect=0;dashed=0;verticalLabelPosition=bottom;verticalAlign=top;align=center;html=1;fontSize=12;fontStyle=0;aspect=fixed;pointerEvents=1;shape=mxgraph.aws4.folder;strokeWidth=1;fillColor=#030303;gradientColor=none;" parent="1" vertex="1">
          <mxGeometry x="-960" y="470" width="45.04" height="41" as="geometry" />
        </mxCell>
        <mxCell id="K02zq3fW6YqKF-il60_Z-170" value="negative" style="sketch=0;outlineConnect=0;dashed=0;verticalLabelPosition=bottom;verticalAlign=top;align=center;html=1;fontSize=12;fontStyle=0;aspect=fixed;pointerEvents=1;shape=mxgraph.aws4.folder;strokeWidth=1;fillColor=#030303;" parent="1" vertex="1">
          <mxGeometry x="-775.0400000000001" y="356.5" width="45.04" height="41" as="geometry" />
        </mxCell>
        <mxCell id="K02zq3fW6YqKF-il60_Z-171" value="var_positive" style="sketch=0;outlineConnect=0;dashed=0;verticalLabelPosition=bottom;verticalAlign=top;align=center;html=1;fontSize=12;fontStyle=0;aspect=fixed;pointerEvents=1;shape=mxgraph.aws4.folder;strokeWidth=1;fillColor=#030303;" parent="1" vertex="1">
          <mxGeometry x="-700" y="568.87" width="45.04" height="41" as="geometry" />
        </mxCell>
        <mxCell id="K02zq3fW6YqKF-il60_Z-172" value="" style="curved=1;endArrow=block;html=1;rounded=0;strokeWidth=2;endSize=4;endFill=1;" parent="1" edge="1">
          <mxGeometry width="50" height="50" relative="1" as="geometry">
            <mxPoint x="-860.0000000000001" y="377.5" as="sourcePoint" />
            <mxPoint x="-790.0000000000001" y="377.5" as="targetPoint" />
            <Array as="points">
              <mxPoint x="-830.0400000000001" y="368.5" />
            </Array>
          </mxGeometry>
        </mxCell>
        <mxCell id="K02zq3fW6YqKF-il60_Z-174" value="" style="curved=1;endArrow=block;html=1;rounded=0;strokeWidth=2;endSize=4;endFill=1;" parent="1" edge="1">
          <mxGeometry width="50" height="50" relative="1" as="geometry">
            <mxPoint x="-640" y="587" as="sourcePoint" />
            <mxPoint x="-630" y="508" as="targetPoint" />
            <Array as="points">
              <mxPoint x="-610" y="568" />
            </Array>
          </mxGeometry>
        </mxCell>
        <mxCell id="K02zq3fW6YqKF-il60_Z-175" value="up to&lt;br&gt;100 pictures" style="edgeLabel;html=1;align=center;verticalAlign=middle;resizable=0;points=[];" parent="K02zq3fW6YqKF-il60_Z-174" vertex="1" connectable="0">
          <mxGeometry x="0.1152" y="1" relative="1" as="geometry">
            <mxPoint x="34" as="offset" />
          </mxGeometry>
        </mxCell>
        <mxCell id="K02zq3fW6YqKF-il60_Z-178" value="data augmentation" style="rounded=0;whiteSpace=wrap;html=1;strokeWidth=2;" parent="1" vertex="1">
          <mxGeometry x="-900" y="572.37" width="100" height="40" as="geometry" />
        </mxCell>
        <mxCell id="K02zq3fW6YqKF-il60_Z-179" value="" style="curved=1;endArrow=block;html=1;rounded=0;strokeWidth=2;endSize=4;endFill=1;" parent="1" edge="1">
          <mxGeometry width="50" height="50" relative="1" as="geometry">
            <mxPoint x="-790" y="579.38" as="sourcePoint" />
            <mxPoint x="-710" y="579.38" as="targetPoint" />
            <Array as="points">
              <mxPoint x="-760" y="559.38" />
            </Array>
          </mxGeometry>
        </mxCell>
        <mxCell id="K02zq3fW6YqKF-il60_Z-180" value="x3" style="edgeLabel;html=1;align=center;verticalAlign=middle;resizable=0;points=[];" parent="K02zq3fW6YqKF-il60_Z-179" vertex="1" connectable="0">
          <mxGeometry x="-0.3651" y="-9" relative="1" as="geometry">
            <mxPoint x="8" y="-13" as="offset" />
          </mxGeometry>
        </mxCell>
        <mxCell id="K02zq3fW6YqKF-il60_Z-181" value="" style="curved=1;endArrow=block;html=1;rounded=0;strokeWidth=2;endSize=4;endFill=1;" parent="1" edge="1">
          <mxGeometry width="50" height="50" relative="1" as="geometry">
            <mxPoint x="-790" y="604.76" as="sourcePoint" />
            <mxPoint x="-710" y="604.76" as="targetPoint" />
            <Array as="points">
              <mxPoint x="-760" y="619.38" />
            </Array>
          </mxGeometry>
        </mxCell>
        <mxCell id="K02zq3fW6YqKF-il60_Z-183" value="" style="curved=1;endArrow=block;html=1;rounded=0;strokeWidth=2;endSize=4;endFill=1;" parent="1" edge="1">
          <mxGeometry width="50" height="50" relative="1" as="geometry">
            <mxPoint x="-935" y="540" as="sourcePoint" />
            <mxPoint x="-910" y="590" as="targetPoint" />
            <Array as="points">
              <mxPoint x="-950" y="580" />
            </Array>
          </mxGeometry>
        </mxCell>
        <mxCell id="K02zq3fW6YqKF-il60_Z-184" value="" style="curved=1;endArrow=block;html=1;rounded=0;strokeWidth=2;endSize=4;endFill=1;" parent="1" edge="1">
          <mxGeometry width="50" height="50" relative="1" as="geometry">
            <mxPoint x="-870" y="560" as="sourcePoint" />
            <mxPoint x="-900" y="510" as="targetPoint" />
            <Array as="points">
              <mxPoint x="-870" y="530" />
            </Array>
          </mxGeometry>
        </mxCell>
        <mxCell id="K02zq3fW6YqKF-il60_Z-185" value="&lt;div&gt;transfer kernel&lt;/div&gt;&lt;div&gt;on new model&lt;br&gt;&lt;/div&gt;" style="rounded=1;whiteSpace=wrap;html=1;strokeWidth=2;" parent="1" vertex="1">
          <mxGeometry x="-700" y="210.5" width="110" height="40" as="geometry" />
        </mxCell>
        <mxCell id="K02zq3fW6YqKF-il60_Z-186" value="" style="curved=1;endArrow=block;html=1;rounded=0;strokeWidth=2;endSize=4;endFill=1;" parent="1" edge="1">
          <mxGeometry width="50" height="50" relative="1" as="geometry">
            <mxPoint x="-900" y="489" as="sourcePoint" />
            <mxPoint x="-700" y="480" as="targetPoint" />
            <Array as="points">
              <mxPoint x="-820" y="450" />
            </Array>
          </mxGeometry>
        </mxCell>
        <mxCell id="K02zq3fW6YqKF-il60_Z-187" value="up to 100 pictures" style="edgeLabel;html=1;align=center;verticalAlign=middle;resizable=0;points=[];" parent="K02zq3fW6YqKF-il60_Z-186" vertex="1" connectable="0">
          <mxGeometry x="0.2328" y="11" relative="1" as="geometry">
            <mxPoint x="-23" y="34" as="offset" />
          </mxGeometry>
        </mxCell>
        <mxCell id="K02zq3fW6YqKF-il60_Z-188" value="" style="curved=1;endArrow=block;html=1;rounded=0;strokeWidth=2;endSize=4;endFill=1;" parent="1" edge="1">
          <mxGeometry width="50" height="50" relative="1" as="geometry">
            <mxPoint x="-720.0000000000001" y="381" as="sourcePoint" />
            <mxPoint x="-650" y="450" as="targetPoint" />
            <Array as="points">
              <mxPoint x="-670" y="400" />
            </Array>
          </mxGeometry>
        </mxCell>
        <mxCell id="K02zq3fW6YqKF-il60_Z-189" value="&lt;div&gt;up to&lt;/div&gt;&lt;div&gt;200 pictures&lt;/div&gt;" style="edgeLabel;html=1;align=center;verticalAlign=middle;resizable=0;points=[];" parent="K02zq3fW6YqKF-il60_Z-188" vertex="1" connectable="0">
          <mxGeometry x="0.2043" y="-1" relative="1" as="geometry">
            <mxPoint x="35" y="-12" as="offset" />
          </mxGeometry>
        </mxCell>
        <mxCell id="K02zq3fW6YqKF-il60_Z-190" value="" style="curved=1;endArrow=block;html=1;rounded=0;strokeWidth=2;endSize=4;endFill=1;" parent="1" edge="1">
          <mxGeometry width="50" height="50" relative="1" as="geometry">
            <mxPoint x="-570" y="481" as="sourcePoint" />
            <mxPoint x="-480" y="490" as="targetPoint" />
            <Array as="points">
              <mxPoint x="-540" y="471" />
            </Array>
          </mxGeometry>
        </mxCell>
        <mxCell id="K02zq3fW6YqKF-il60_Z-191" value="&lt;div&gt;1322 - x pictures&lt;/div&gt;" style="edgeLabel;html=1;align=center;verticalAlign=middle;resizable=0;points=[];" parent="1" vertex="1" connectable="0">
          <mxGeometry x="-824.7355164504278" y="356.5033287983845" as="geometry" />
        </mxCell>
        <mxCell id="K02zq3fW6YqKF-il60_Z-192" value="up to&lt;br&gt;200 tuples" style="edgeLabel;html=1;align=center;verticalAlign=middle;resizable=0;points=[];" parent="1" vertex="1" connectable="0">
          <mxGeometry x="-530.0031256476975" y="449.9979645239937" as="geometry" />
        </mxCell>
        <mxCell id="K02zq3fW6YqKF-il60_Z-193" value="" style="curved=1;endArrow=block;html=1;rounded=0;strokeWidth=2;endSize=4;endFill=1;" parent="1" edge="1">
          <mxGeometry width="50" height="50" relative="1" as="geometry">
            <mxPoint x="-624.9599999999999" y="133" as="sourcePoint" />
            <mxPoint x="-630" y="203" as="targetPoint" />
            <Array as="points">
              <mxPoint x="-614.96" y="163" />
            </Array>
          </mxGeometry>
        </mxCell>
        <mxCell id="K02zq3fW6YqKF-il60_Z-194" value="import from&lt;br&gt;local file" style="edgeLabel;html=1;align=center;verticalAlign=middle;resizable=0;points=[];" parent="K02zq3fW6YqKF-il60_Z-193" vertex="1" connectable="0">
          <mxGeometry x="0.6955" y="-2" relative="1" as="geometry">
            <mxPoint x="-37" y="-31" as="offset" />
          </mxGeometry>
        </mxCell>
        <mxCell id="K02zq3fW6YqKF-il60_Z-195" value="saved_model" style="sketch=0;outlineConnect=0;dashed=0;verticalLabelPosition=bottom;verticalAlign=top;align=center;html=1;fontSize=12;fontStyle=0;aspect=fixed;pointerEvents=1;shape=mxgraph.aws4.folder;strokeWidth=1;fillColor=#030303;" parent="1" vertex="1">
          <mxGeometry x="-670" y="63" width="45.04" height="41" as="geometry" />
        </mxCell>
        <mxCell id="K02zq3fW6YqKF-il60_Z-196" value="&lt;div&gt;.h5&lt;/div&gt;" style="shape=note;whiteSpace=wrap;html=1;backgroundOutline=1;darkOpacity=0.05;strokeWidth=2;size=11;" parent="1" vertex="1">
          <mxGeometry x="-599.92" y="143.25" width="31" height="38.75" as="geometry" />
        </mxCell>
        <mxCell id="K02zq3fW6YqKF-il60_Z-197" value="&lt;div&gt;preprocess data&lt;/div&gt;" style="rounded=0;whiteSpace=wrap;html=1;strokeWidth=2;" parent="1" vertex="1">
          <mxGeometry x="-690" y="460" width="110" height="40" as="geometry" />
        </mxCell>
        <mxCell id="K02zq3fW6YqKF-il60_Z-198" value="" style="curved=1;endArrow=block;html=1;rounded=0;strokeWidth=2;endSize=4;endFill=1;" parent="1" edge="1">
          <mxGeometry width="50" height="50" relative="1" as="geometry">
            <mxPoint x="-780" y="193" as="sourcePoint" />
            <mxPoint x="-710" y="233" as="targetPoint" />
            <Array as="points">
              <mxPoint x="-760" y="233" />
            </Array>
          </mxGeometry>
        </mxCell>
        <mxCell id="K02zq3fW6YqKF-il60_Z-199" value="create untrained&lt;br&gt;siamese model" style="rounded=1;whiteSpace=wrap;html=1;strokeWidth=2;" parent="1" vertex="1">
          <mxGeometry x="-840" y="145.75" width="110" height="40" as="geometry" />
        </mxCell>
        <mxCell id="K02zq3fW6YqKF-il60_Z-200" value="" style="curved=1;endArrow=block;html=1;rounded=0;strokeWidth=2;endSize=4;endFill=1;" parent="1" edge="1">
          <mxGeometry width="50" height="50" relative="1" as="geometry">
            <mxPoint x="-640" y="263" as="sourcePoint" />
            <mxPoint x="-500" y="300" as="targetPoint" />
            <Array as="points">
              <mxPoint x="-610" y="303" />
            </Array>
          </mxGeometry>
        </mxCell>
        <mxCell id="K02zq3fW6YqKF-il60_Z-201" value="repeat process on another person" style="rounded=1;whiteSpace=wrap;html=1;strokeWidth=2;" parent="1" vertex="1">
          <mxGeometry x="-290" y="559.5" width="120" height="44" as="geometry" />
        </mxCell>
        <mxCell id="K02zq3fW6YqKF-il60_Z-202" value="" style="curved=1;endArrow=block;html=1;rounded=0;strokeWidth=2;endSize=4;endFill=1;" parent="1" edge="1">
          <mxGeometry width="50" height="50" relative="1" as="geometry">
            <mxPoint x="-310" y="420" as="sourcePoint" />
            <mxPoint x="-330" y="490" as="targetPoint" />
            <Array as="points">
              <mxPoint x="-300" y="470" />
            </Array>
          </mxGeometry>
        </mxCell>
        <mxCell id="K02zq3fW6YqKF-il60_Z-203" value="" style="curved=1;endArrow=block;html=1;rounded=0;strokeWidth=2;endSize=4;endFill=1;" parent="1" edge="1">
          <mxGeometry width="50" height="50" relative="1" as="geometry">
            <mxPoint x="-440" y="530" as="sourcePoint" />
            <mxPoint x="-430" y="630" as="targetPoint" />
            <Array as="points">
              <mxPoint x="-460" y="590" />
            </Array>
          </mxGeometry>
        </mxCell>
        <mxCell id="K02zq3fW6YqKF-il60_Z-204" value="save&lt;br&gt;embedding&lt;br&gt;kernel" style="edgeLabel;html=1;align=center;verticalAlign=middle;resizable=0;points=[];" parent="K02zq3fW6YqKF-il60_Z-203" vertex="1" connectable="0">
          <mxGeometry x="-0.2802" y="7" relative="1" as="geometry">
            <mxPoint x="34" y="15" as="offset" />
          </mxGeometry>
        </mxCell>
        <mxCell id="K02zq3fW6YqKF-il60_Z-205" value="saved_model" style="sketch=0;outlineConnect=0;dashed=0;verticalLabelPosition=bottom;verticalAlign=top;align=center;html=1;fontSize=12;fontStyle=0;aspect=fixed;pointerEvents=1;shape=mxgraph.aws4.folder;strokeWidth=1;fillColor=#030303;" parent="1" vertex="1">
          <mxGeometry x="-452.52" y="640" width="45.04" height="41" as="geometry" />
        </mxCell>
        <mxCell id="K02zq3fW6YqKF-il60_Z-206" value="&lt;div&gt;.h5&lt;/div&gt;" style="shape=note;whiteSpace=wrap;html=1;backgroundOutline=1;darkOpacity=0.05;strokeWidth=2;size=11;" parent="1" vertex="1">
          <mxGeometry x="-490" y="580" width="31" height="38.75" as="geometry" />
        </mxCell>
        <mxCell id="K02zq3fW6YqKF-il60_Z-210" value="" style="curved=1;endArrow=block;html=1;rounded=0;strokeWidth=2;endSize=4;endFill=1;" parent="1" edge="1">
          <mxGeometry width="50" height="50" relative="1" as="geometry">
            <mxPoint x="-850" y="560" as="sourcePoint" />
            <mxPoint x="-900" y="500" as="targetPoint" />
            <Array as="points">
              <mxPoint x="-860" y="520" />
            </Array>
          </mxGeometry>
        </mxCell>
        <mxCell id="K02zq3fW6YqKF-il60_Z-211" value="x2" style="edgeLabel;html=1;align=center;verticalAlign=middle;resizable=0;points=[];" parent="K02zq3fW6YqKF-il60_Z-210" vertex="1" connectable="0">
          <mxGeometry x="-0.126" y="5" relative="1" as="geometry">
            <mxPoint x="14" y="-5" as="offset" />
          </mxGeometry>
        </mxCell>
        <mxCell id="K02zq3fW6YqKF-il60_Z-213" value="" style="curved=1;endArrow=block;html=1;rounded=0;strokeWidth=2;endSize=4;endFill=1;" parent="1" edge="1">
          <mxGeometry width="50" height="50" relative="1" as="geometry">
            <mxPoint x="-920" y="280" as="sourcePoint" />
            <mxPoint x="-920" y="340" as="targetPoint" />
            <Array as="points">
              <mxPoint x="-910" y="310" />
            </Array>
          </mxGeometry>
        </mxCell>
        <mxCell id="K02zq3fW6YqKF-il60_Z-214" value="analyze&lt;br&gt;dataset" style="edgeLabel;html=1;align=center;verticalAlign=middle;resizable=0;points=[];" parent="K02zq3fW6YqKF-il60_Z-213" vertex="1" connectable="0">
          <mxGeometry x="0.1244" y="-4" relative="1" as="geometry">
            <mxPoint x="-45" y="-5" as="offset" />
          </mxGeometry>
        </mxCell>
        <mxCell id="K02zq3fW6YqKF-il60_Z-215" value="&lt;div&gt;.txt&lt;/div&gt;" style="shape=note;whiteSpace=wrap;html=1;backgroundOutline=1;darkOpacity=0.05;strokeWidth=2;size=11;" parent="1" vertex="1">
          <mxGeometry x="-900" y="280" width="31" height="38.75" as="geometry" />
        </mxCell>
        <mxCell id="K02zq3fW6YqKF-il60_Z-216" value="randomly select a given person" style="rounded=0;whiteSpace=wrap;html=1;strokeWidth=2;" parent="1" vertex="1">
          <mxGeometry x="-979.32" y="357" width="109.32" height="39" as="geometry" />
        </mxCell>
        <mxCell id="K02zq3fW6YqKF-il60_Z-220" value="" style="curved=1;endArrow=block;html=1;rounded=0;strokeWidth=2;endSize=4;endFill=1;" parent="1" edge="1">
          <mxGeometry width="50" height="50" relative="1" as="geometry">
            <mxPoint x="-930" y="410" as="sourcePoint" />
            <mxPoint x="-930" y="460" as="targetPoint" />
            <Array as="points">
              <mxPoint x="-940" y="430" />
            </Array>
          </mxGeometry>
        </mxCell>
        <mxCell id="K02zq3fW6YqKF-il60_Z-221" value="&lt;div&gt;x pictures&lt;/div&gt;" style="edgeLabel;html=1;align=center;verticalAlign=middle;resizable=0;points=[];" parent="1" vertex="1" connectable="0">
          <mxGeometry x="-899.9955164504278" y="430.0033287983845" as="geometry" />
        </mxCell>
        <mxCell id="K02zq3fW6YqKF-il60_Z-223" value="" style="curved=1;endArrow=block;html=1;rounded=0;strokeWidth=2;endSize=4;endFill=1;" parent="1" edge="1">
          <mxGeometry width="50" height="50" relative="1" as="geometry">
            <mxPoint x="-790" y="591.47" as="sourcePoint" />
            <mxPoint x="-710" y="591.47" as="targetPoint" />
            <Array as="points" />
          </mxGeometry>
        </mxCell>
        <mxCell id="K02zq3fW6YqKF-il60_Z-224" value="train model" style="rounded=1;whiteSpace=wrap;html=1;strokeWidth=2;" parent="1" vertex="1">
          <mxGeometry x="-470" y="470" width="130" height="50" as="geometry" />
        </mxCell>
        <mxCell id="K02zq3fW6YqKF-il60_Z-225" value="" style="curved=1;endArrow=block;html=1;rounded=0;strokeWidth=2;endSize=4;endFill=1;" parent="1" edge="1">
          <mxGeometry width="50" height="50" relative="1" as="geometry">
            <mxPoint x="-370" y="530" as="sourcePoint" />
            <mxPoint x="-300" y="580" as="targetPoint" />
            <Array as="points">
              <mxPoint x="-350" y="580" />
            </Array>
          </mxGeometry>
        </mxCell>
        <mxCell id="K02zq3fW6YqKF-il60_Z-226" value="" style="curved=1;endArrow=block;html=1;rounded=0;strokeWidth=2;endSize=4;endFill=0;dashed=1;dashPattern=1 4;" parent="1" edge="1">
          <mxGeometry width="50" height="50" relative="1" as="geometry">
            <mxPoint x="-230" y="612.37" as="sourcePoint" />
            <mxPoint x="-990" y="380" as="targetPoint" />
            <Array as="points">
              <mxPoint x="-230" y="660" />
              <mxPoint x="-230" y="740" />
              <mxPoint x="-300" y="740" />
              <mxPoint x="-980" y="740" />
              <mxPoint x="-1060" y="740" />
              <mxPoint x="-1060" y="660" />
              <mxPoint x="-1060" y="460" />
              <mxPoint x="-1060" y="380" />
              <mxPoint x="-1000" y="380" />
            </Array>
          </mxGeometry>
        </mxCell>
      </root>
    </mxGraphModel>
  </diagram>
</mxfile>
